<?xml version="1.0" encoding="UTF-8"?>
<svg id="Layer_1" data-name="Layer 1" xmlns="http://www.w3.org/2000/svg" viewBox="0 0 5000 5000">
  <defs>
    <style>
      .cls-1 {
        fill: #434179;
      }

      .cls-2 {
        fill: #ffc5c5;
      }

      .cls-3 {
        fill: #35325c;
      }

      .cls-4 {
        fill: #fff;
      }

      .cls-5 {
        fill: #262c3c;
      }

      .cls-6 {
        fill: #e29f27;
      }

      .cls-7 {
        fill: #21606b;
      }

      .cls-8 {
        fill: #011721;
      }

      .cls-9 {
        fill: #ffbd39;
      }
    </style>
  </defs>
  <circle class="cls-7" cx="2500" cy="2505.49" r="1386.64"/>
  <path class="cls-4" d="M3219.11,3151.11h-1365.62c-87.03,0-157.83-70.8-157.83-157.82v-1946.39c0-87.03,70.8-157.82,157.83-157.82h1071.92c2.91,0,5.7,1.15,7.76,3.21l440.56,440.55c2.06,2.06,3.21,4.85,3.21,7.76v1652.69c0,87.02-70.8,157.82-157.83,157.82ZM1853.49,911.03c-74.92,0-135.87,60.95-135.87,135.87v1946.39c0,74.92,60.95,135.87,135.87,135.87h1365.62c74.92,0,135.88-60.95,135.88-135.87v-1648.14l-434.13-434.12h-1067.37Z"/>
  <g>
    <path class="cls-7" d="M3072.26,1340.6h293.7l-440.55-440.55v293.7c0,81.1,65.75,146.85,146.85,146.85Z"/>
    <path class="cls-4" d="M3365.97,1351.57h-293.7c-87.03,0-157.83-70.8-157.83-157.82v-293.7c0-4.44,2.68-8.44,6.78-10.14,4.1-1.7,8.82-.77,11.96,2.38l440.56,440.55c3.14,3.14,4.08,7.86,2.38,11.96-1.7,4.11-5.7,6.78-10.15,6.78ZM2936.39,926.56v267.2c0,74.92,60.96,135.87,135.88,135.87h267.2l-403.08-403.07Z"/>
  </g>
  <polygon class="cls-2" points="2051.43 3892.46 2016.52 3952.72 1993.69 3946.18 1977.73 3894.12 1996.73 3861.45 2011.55 3859.71 2051.43 3892.46"/>
  <polygon class="cls-2" points="3030.07 3014.51 3073.18 3043.45 3067.11 3064.61 3018.86 3079.4 2988.58 3061.79 2986.97 3048.06 3030.07 3014.51"/>
  <path class="cls-5" d="M2101.19,2166.91s19.95-32.04,23.59-73.02c0,0-1.73-24.89-34.93-7.41-20.77,10.94-75.37-31.4-107.55-24.12-25.94,5.86-88.91,65.52,1.92,191.54l13.96-2.39,103-84.59Z"/>
  <path class="cls-2" d="M2007.7,2279.93l22.89-32.87,31.81,17.42,50.24-34.07-12.76-79.4s-22.41,35.82-59.5,34.33c-5.93-.24-8.63-20.35-15.03-24.94-8.48-6.09-16.44.98-16.71,14.4-.22,10.84,10.06,12.36,8.12,20.59-8.35,35.49-41.82,56.47-57.63,62.19l38.51,40.85,10.07-18.51Z"/>
  <path class="cls-3" d="M2099.52,2843.21l555.22-210.2s88.11,34.71,380.95,376.77l-76.73,64.53s-246.69-135.35-349.19-224.16l-240.35,217.14-156.64-73.34-113.26-150.75Z"/>
  <path class="cls-1" d="M1742.8,2975.69c25.17,61.27,69.14,114.2,127.15,149.59,41.92,25.57,79.6,37.87,136.82,49.83l306.33,58.42s-120.23,184.82-315.33,624.5l81.9,52.54s437.47-457.55,507.78-772.35c5.71-25.55-3.98-52.04-25.64-66.74-82.2-55.76-276.86-179.37-462.3-228.28,0,0-158.95,145.52-356.71,132.48Z"/>
  <polygon class="cls-6" points="2057.41 2290.76 2192.36 2606.22 2418.39 2648.73 2154.97 2654.76 2106.34 2621.99 2053.62 2425.71 2057.41 2290.76"/>
  <path class="cls-9" d="M2099.52,2843.21s30.71-593.26-95.31-608.22c0,0-76.96,3.1-152.02,123.39,0,0-66.58,108.01-107.61,309.37-11.86,58.2-33.11,228.23-1.77,307.94,197.76,13.04,356.71-132.48,356.71-132.48Z"/>
  <path class="cls-3" d="M2386.27,3176.12c-306.31-43.81-417.38-153.63-457.56-231.08-54.06,20.76-117.67,35.15-185.91,30.65,25.17,61.27,69.14,114.2,127.15,149.59,41.92,25.57,79.6,37.87,136.82,49.83l306.33,58.42s-32.3,49.16-104.88,195.2c56.28-115.15,178.04-252.61,178.04-252.61Z"/>
  <path class="cls-3" d="M2079.68,3910.58s378.89-399.3,486.24-699.02c-101.35,254.91-513.81,679.08-513.81,679.08l-.67,1.82,28.24,18.12Z"/>
  <path class="cls-5" d="M3075.22,3040.3l136.37,68.93c4.89,1.49,8.23,6,8.23,11.11h0c0,6.36-5.11,11.53-11.47,11.61l-213.95-.36c-17.35-.39-29.32-17.53-23.7-33.95l9.84-39.9s43.84,10.81,60.52,5.46c28-8.98,34.16-22.89,34.16-22.89Z"/>
  <path class="cls-5" d="M2019.91,3954.92l-74.36,147.13c-1.61,5.27-6.47,8.88-11.99,8.88h0c-6.86,0-12.44-5.52-12.53-12.38l.39-230.84c.42-18.72,18.92-31.63,36.63-25.57l43.05,10.62s-11.66,47.3-5.89,65.3c9.69,30.21,24.7,36.86,24.7,36.86Z"/>
  <path class="cls-6" d="M2099.52,2843.21s4.48-69.18,6.19-163.03l-88.68-81.7-99.42-218.31s-34.88,450.38,11.11,564.86h0c102.61-39.41,170.8-101.83,170.8-101.83Z"/>
  <g>
    <path class="cls-8" d="M2295.48,2717.43l227.38-32.88,125.63-325.91c.76-1.97,2.48-3.41,4.55-3.81l170.98-33.39c4.72-.92,8.61,3.69,6.91,8.19l-118.1,312.02s-.24,23.25-.2,37.67c.04,15.23-6.42,22.38-17.97,24.05l-394.02,56.21c-12.94,1.87-24.96-8.5-24.24-22.27.54-10.25,8.92-18.41,19.08-19.88Z"/>
    <polygon class="cls-4" points="2819.49 2332.14 2652.22 2361.63 2526.66 2684 2697.5 2658.58 2819.49 2332.14"/>
  </g>
  <path class="cls-9" d="M1917.6,2380.18s18.97,272.54,79.03,356.01c0,0,273.3,19.48,427.32-39.07l-5.56-48.39-312.05-26.74-188.74-241.81Z"/>
  <path class="cls-6" d="M2423.96,2697.12l-2.41-18.69c-102.18,16-424.91,57.75-424.91,57.75,0,0,273.3,19.48,427.32-39.07Z"/>
  <path class="cls-2" d="M2418.39,2648.73l55.4-11.29,55.24,16.46,19.23,26.88-118.35,17.2-5.96-.87s-8.82-19.87-5.56-48.39Z"/>
  <path class="cls-1" d="M2276.36,2908.44l412.55-157.77,308.62,291.08,38.14-31.96c-143.34-167.44-237.53-261.11-296.44-313.24l-462.88,211.9Z"/>
  <g>
    <path class="cls-7" d="M1835.52,1246.23c-7.44,0-14.65,1.01-21.51,2.86,0-.02,0-.03,0-.05,0-62.16-50.39-112.55-112.55-112.55s-111.44,49.29-112.52,110.51c-3.66-.5-7.38-.78-11.18-.78-45.33,0-82.09,36.75-82.09,82.09s36.75,82.08,82.09,82.08c3.27,0,6.49-.21,9.66-.58v.58h248.09c45.33,0,82.08-36.75,82.08-82.08s-36.75-82.09-82.08-82.09Z"/>
    <path class="cls-4" d="M1835.52,1420.4h-248.09c-.84,0-1.66-.1-2.43-.3-2.38.19-4.8.3-7.23.3-50.78,0-92.09-41.31-92.09-92.09s42.34-93.15,93.91-92.06c6.47-61.42,59.06-109.75,121.88-109.75s115.91,48.57,121.96,110.53c4.01-.53,8.05-.8,12.09-.8,50.78,0,92.08,41.31,92.08,92.08s-41.31,92.09-92.08,92.09ZM1590.8,1400.4h244.72c39.75,0,72.08-32.34,72.08-72.09s-32.34-72.08-72.08-72.08c-6.36,0-12.71.85-18.89,2.52-3,.82-6.21.18-8.69-1.71-2.47-1.89-3.92-4.82-3.92-7.94,0-56.6-46-102.6-102.55-102.6s-101.54,45.17-102.52,100.69c-.05,2.86-1.32,5.56-3.49,7.42-2.16,1.85-5.05,2.71-7.86,2.31-3.36-.45-6.67-.69-9.82-.69-39.75,0-72.09,32.34-72.09,72.08s32.34,72.09,72.09,72.09c2.87,0,5.71-.19,8.5-.52,1.55-.18,3.09,0,4.53.52Z"/>
  </g>
  <circle class="cls-4" cx="2567.6" cy="1758" r="344.31"/>
  <g>
    <path class="cls-7" d="M2774.65,1952h-414.09c-8.29,0-15-6.71-15-15v-125.01c0-8.29,6.71-15,15-15s15,6.71,15,15v110.01h384.09v-110.01c0-8.29,6.72-15,15-15s15,6.71,15,15v125.01c0,8.29-6.72,15-15,15Z"/>
    <path class="cls-7" d="M2567.6,1849.06h0c-3.98,0-7.79-1.58-10.6-4.4l-110.59-110.59c-5.86-5.86-5.86-15.36,0-21.21,5.86-5.86,15.35-5.86,21.21,0l99.98,99.98,99.99-99.98c5.86-5.86,15.35-5.86,21.21,0s5.86,15.36,0,21.21l-110.6,110.59c-2.81,2.81-6.63,4.4-10.6,4.4Z"/>
    <path class="cls-7" d="M2567.6,1777.76c-8.28,0-15-6.71-15-15v-183.76c0-8.29,6.72-15,15-15s15,6.71,15,15v183.76c0,8.29-6.72,15-15,15Z"/>
  </g>
  <g>
    <path class="cls-7" d="M3504.32,2672.17h-349.87l-7.91-237.83c-.46-13.89,10.67-25.4,24.57-25.4h74.89c11.23,0,21.88,4.94,29.14,13.5l14.22,16.79c7.25,8.56,17.91,13.5,29.14,13.5h161.25c13.58,0,24.58,11.01,24.58,24.58v194.85Z"/>
    <path class="cls-4" d="M3504.32,2682.17h-349.86c-5.39,0-9.81-4.28-9.99-9.67l-7.92-237.83c-.31-9.45,3.14-18.4,9.71-25.19,6.57-6.8,15.4-10.54,24.85-10.54h74.89c14.2,0,27.6,6.21,36.77,17.04l14.22,16.79c5.37,6.33,13.2,9.97,21.5,9.97h161.25c19.07,0,34.58,15.51,34.58,34.58v194.84c0,5.53-4.47,10-10,10ZM3164.12,2662.17h330.2v-184.84c0-8.04-6.54-14.58-14.58-14.58h-161.25c-14.19,0-27.59-6.21-36.76-17.04l-14.23-16.79c-5.36-6.34-13.19-9.97-21.5-9.97h-74.89c-3.98,0-7.71,1.58-10.48,4.44-2.77,2.87-4.23,6.64-4.1,10.62l7.6,228.16Z"/>
  </g>
</svg>